<svg width="135.000000" height="55.000000" viewBox="0 0 135 55" fill="none" xmlns="http://www.w3.org/2000/svg" xmlns:xlink="http://www.w3.org/1999/xlink">
	<desc>
			Created with Pixso.
	</desc>
	<defs>
		<clipPath id="clip1_444">
			<rect id="Frame" width="135.000000" height="55.000000" fill="white" fill-opacity="0"/>
		</clipPath>
	</defs>
	<g clip-path="url(#clip1_444)">
		<path id="Vector" d="M0 23.5645L0 2.19873L2.80207 2.19873L2.80207 9.47314L13.1482 9.47314L13.1482 11.9385L2.80207 11.9385L2.73471 23.4165C2.73471 30.4888 6.66839 34.5034 13.1482 34.5034L13.1482 37.0361C4.60725 37.0493 0 31.9844 0 23.5645Z" fill="#D96E00" fill-opacity="1.000000" fill-rule="nonzero"/>
		<path id="Vector" d="M46.7328 37.1172C41.3307 37.1172 38.1245 35.0425 37.0468 31.2437C35.9825 35.0562 32.6416 37.1172 27.1587 37.1172C21.4198 37.1172 17.4727 33.9111 17.4727 26.2998L17.4727 9.54102L20.2074 9.54102L20.2074 26.2324C20.2074 32.4424 23.0768 34.5845 27.482 34.5845C32.4934 34.5845 35.6322 31.917 35.6322 26.9058L35.6322 9.54102L38.367 9.54102L38.367 26.9731C38.367 31.8496 41.4385 34.5845 46.3825 34.5845C50.855 34.5845 53.9265 32.4424 53.9265 26.2324L53.9265 9.54102L56.6613 9.54102L56.6613 26.2998C56.6882 33.9243 52.6063 37.1172 46.7328 37.1172Z" fill="#D96E00" fill-opacity="1.000000" fill-rule="nonzero"/>
		<path id="Vector" d="M63.8285 4.67773C62.6969 4.67773 61.7539 3.86963 61.7539 2.80518C61.7539 1.87549 62.6834 1 63.8285 1C64.9601 1 65.9031 1.8623 65.9031 2.87256C65.9031 3.88281 64.9601 4.67773 63.8285 4.67773ZM62.4275 36.7939L62.4275 9.54102L65.1622 9.54102L65.1622 36.7803L62.4275 36.7803L62.4275 36.7939Z" fill="#D96E00" fill-opacity="1.000000" fill-rule="nonzero"/>
		<path id="Vector" d="M98.2069 54.4141C98.2069 50.0762 96.267 45.9946 90.3934 45.9946L72.9748 45.9946L73.0421 45.8599L72.9748 45.8599C73.1768 41.1851 74.5105 37.6421 77.9862 35.918C73.1095 33.7759 69.7686 29.1011 69.7686 23.5645C69.7686 14.6865 76.9758 9.60791 85.1261 9.60791L89.8007 9.60791C93.5458 9.60791 94.7447 7.0752 94.7447 4.25977L96.0784 4.25977C96.011 6.7251 95.4048 8.53027 93.9364 9.60791L98.409 9.60791L98.409 12.208C98.409 12.208 91.9292 12.1406 91.1344 12.1406C95.5395 13.7437 98.7458 18.4185 98.7458 23.5645C98.7458 31.3105 92.4007 37.2515 84.3178 37.2515L82.782 37.2515C77.9727 37.2515 75.8442 40.0537 75.238 43.4619L88.925 43.4619C92.724 43.4619 93.9364 40.9292 93.9364 38.1138L95.2701 38.1138C95.1354 40.8481 94.4079 42.7212 92.6027 43.7852C98.0722 44.917 100.012 48.729 100.282 54.4009L98.2069 54.4009L98.2069 54.4141ZM84.2504 12.1543C77.7033 12.1543 72.3686 17.2329 72.3686 23.4434C72.3686 27.9155 75.1033 31.7822 79.0504 33.5874C78.3768 32.5229 78.0535 31.1221 77.9862 29.3169L79.3199 29.3169C79.3199 32.1187 80.5188 34.7188 84.1965 34.7188L84.2639 34.7188C90.811 34.7188 96.1458 29.7075 96.1458 23.4297C96.1458 17.2192 90.7976 12.1543 84.2504 12.1543Z" fill="#D96E00" fill-opacity="1.000000" fill-rule="nonzero"/>
		<path id="Vector" d="M112.163 37.1851C109.765 37.1851 105.615 36.3901 102.409 33.5073L103.945 31.7021C106.747 34.0327 110.088 34.6387 112.028 34.6387C115.436 34.5713 118.642 32.564 118.575 29.4927C118.508 21.1538 103.352 27.0947 103.217 16.5464C103.15 12.478 107.286 9.33936 111.691 9.20459C113.564 9.20459 117.228 9.67627 120.299 12.0068L118.696 13.7446C116.42 12.1411 113.483 11.6699 111.947 11.6699C108.943 11.7373 105.871 13.6772 105.871 16.479C105.871 24.4946 121.027 19.0117 121.229 29.3716C121.31 33.79 117.309 37.1177 112.163 37.1851Z" fill="#D96E00" fill-opacity="1.000000" fill-rule="nonzero"/>
		<path id="Vector" d="M124.49 10.9287C124.49 9.36572 125.716 8.09961 127.238 8.09961C128.774 8.09961 130 9.36572 130 10.9287C130 12.4512 128.774 13.731 127.238 13.731C125.716 13.731 124.49 12.4644 124.49 10.9287ZM129.461 10.9287C129.461 9.63525 128.478 8.57129 127.238 8.57129C126.013 8.57129 125.002 9.63525 125.002 10.9287C125.002 12.2085 125.999 13.2593 127.238 13.2593C128.478 13.2593 129.461 12.1948 129.461 10.9287ZM126.295 9.54102C126.524 9.51416 126.807 9.4873 127.104 9.4873C127.925 9.4873 128.303 9.87793 128.303 10.3896C128.303 10.7266 128.128 11.0498 127.804 11.1982L128.478 12.2759L127.777 12.2759L127.238 11.3325C127.171 11.3462 127.131 11.3462 127.09 11.3462C127.036 11.3462 126.982 11.3462 126.875 11.3325L126.875 12.2759L126.282 12.2759L126.282 9.54102L126.295 9.54102ZM126.902 10.8477C126.996 10.8613 127.063 10.8613 127.131 10.8613C127.467 10.8613 127.669 10.6997 127.669 10.4033C127.669 10.1606 127.494 10.0127 127.171 10.0127C127.077 10.0127 126.996 10.0127 126.915 10.0259L126.915 10.8477L126.902 10.8477Z" fill="#D96E00" fill-opacity="1.000000" fill-rule="nonzero"/>
	</g>
</svg>
